<?xml version="1.0" encoding="UTF-8"?>
<svg id="Layer_1" data-name="Layer 1" xmlns="http://www.w3.org/2000/svg" viewBox="0 0 2500 800">
  <defs>
    <style>
      .cls-1 {
        fill: #00223e;
      }

      .cls-2 {
        fill: #fff;
      }
    </style>
  </defs>
  <rect class="cls-1" width="2500" height="800"/>
  <g>
    <path class="cls-2" d="M310.23,507.97v-40.68h211.77v-76.92h-211.77v-32.92c0-18.92,9.59-28.49,28.54-28.49h187.65v-85.79H250.07c-36.66,0-56.84,20.15-56.84,56.75v265.6c0,36.59,20.19,56.75,56.84,56.75h278.56v-85.79h-189.87c-18.95,0-28.54-9.59-28.54-28.5"/>
    <path class="cls-2" d="M689.94,505.76V243.18h-116.97v322.35c0,36.59,20.17,56.73,56.83,56.73h276.34v-88.01h-187.65c-18.93,0-28.55-9.6-28.55-28.49"/>
    <path class="cls-2" d="M1058.37,507.97v-40.68h211.77v-76.92h-211.77v-32.92c0-18.92,9.59-28.49,28.54-28.49h187.67v-85.79h-276.36c-36.66,0-56.84,20.15-56.84,56.75v265.6c0,36.59,20.19,56.75,56.84,56.75h278.56v-85.79h-189.87c-18.95,0-28.54-9.59-28.54-28.5"/>
  </g>
  <rect class="cls-2" x="1321.1" y="243.17" width="116.97" height="379.08"/>
  <g>
    <path class="cls-2" d="M1760.26,622.25h139.5l-144.62-162.44c-12.83-14.38-17.14-22.75-17.14-33.18,0-12.23,6.57-23.76,12.74-30.48l128.85-152.97h-137.51l-102.97,144.34-.24.38c-.16.26-.34.54-.54.78l-1.24,1.68h-35.47v-147.18h-116.98v379.08h116.98v-154.96h37.55l1.24,1.79c1.27,1.84,2.4,3.34,3.54,4.73l116.31,148.44Z"/>
    <path class="cls-2" d="M2097.51,538.69c-74.44,0-88.98-38.87-88.98-105.99s14.55-105.96,88.98-105.96,88.97,38.84,88.97,105.96-14.56,105.99-88.97,105.99M2261.78,274.54c-29.38-25.44-76.98-35.79-164.27-35.79s-134.92,10.35-164.3,35.79c-31.54,27.26-44.99,74.59-44.99,158.16s13.45,130.89,44.99,158.17c29.38,25.42,76.97,35.78,164.3,35.78s134.87-10.35,164.27-35.78c31.54-27.28,44.99-74.59,44.99-158.17s-13.45-130.89-44.99-158.16"/>
  </g>
</svg>