<?xml version="1.0" encoding="UTF-8" standalone="no"?>
<!-- Created with Inkscape (http://www.inkscape.org/) -->
<svg
   xmlns:svg="http://www.w3.org/2000/svg"
   xmlns="http://www.w3.org/2000/svg"
   version="1.0"
   width="851.42859"
   height="194.28572"
   id="svg3002">
  <defs
     id="defs3004" />
  <g
     transform="translate(411.42856,-362.07648)"
     id="layer1">
    <path
       d="M 358.07658,503.8965 L 402.20349,503.8965 C 417.37322,503.8965 421.37965,511.07441 421.37965,517.47347 C 421.37965,523.70415 417.16272,530.50316 402.02808,530.50316 L 358.07658,530.50316 L 358.07658,537.47057 L 404.63121,537.47057 C 417.6609,537.47057 429.70125,531.49951 429.70125,517.68397 C 429.70125,503.54568 417.6609,496.97821 403.38929,496.97821 L 358.07658,496.97821 L 358.07658,503.8965"
       id="path429"
       style="fill:#231f20;fill-opacity:1;fill-rule:nonzero;stroke:none" />
    <path
       d="M 378.46659,443.79296 C 370.81858,444.0666 356.25228,445.85582 356.25228,463.86022 C 356.25228,476.32156 366.9174,481.55589 377.81406,481.55589 C 389.94563,481.55589 393.18024,473.97103 394.26079,470.61713 L 397.57259,460.07831 C 400.23887,451.60937 402.6315,449.1185 409.88659,449.1185 C 419.90618,449.1185 421.61821,457.55236 421.61821,462.58321 C 421.61821,469.18576 417.96962,476.77764 405.33286,476.77764 L 405.33286,483.31002 C 411.83718,483.31002 417.6609,482.46102 423.0145,478.05465 C 425.83515,475.76726 429.70125,472.0485 429.70125,462.49901 C 429.70125,453.70029 425.13349,442.36159 408.6166,442.36159 C 397.57259,442.36159 392.11373,447.36437 389.94563,454.05112 L 385.41295,468.76477 C 384.41661,471.73977 382.46601,474.86213 376.54407,474.86213 C 365.97017,474.86213 364.30725,467.48074 364.30725,463.08138 C 364.30725,457.26469 367.73833,450.68319 378.46659,450.30429 L 378.46659,443.79296"
       id="path433"
       style="fill:#231f20;fill-opacity:1;fill-rule:nonzero;stroke:none" />
    <path
       d="M 399.22849,418.77905 L 368.47506,410.47851 L 368.47506,410.38027 L 399.22849,402.76033 L 399.22849,418.77905 z M 407.57815,400.26245 L 427.91905,395.15442 L 427.91905,387.58359 L 358.06956,406.21246 L 358.06956,414.07798 L 427.91905,433.46464 L 427.91905,426.29375 L 407.57815,420.92611 L 407.57815,400.26245"
       id="path437"
       style="fill:#231f20;fill-opacity:1;fill-rule:nonzero;stroke:none" />
    <path
       d="M 140.70467,415.52339 C 167.72531,415.52339 167.75337,440.76884 167.75337,462.94105 C 167.75337,489.8424 167.72531,511.95147 141.0976,511.95147 C 114.66636,511.95147 114.60321,483.724 114.60321,462.94105 C 114.60321,442.36159 114.66636,415.52339 140.70467,415.52339 z M 141.0976,383.16318 C 99.847457,383.16318 71.641032,414.40074 71.641032,462.45691 C 71.641032,520.21694 99.461549,544.32571 141.0976,544.32571 C 180.35505,544.32571 210.75063,520.21694 210.75063,462.91299 C 210.75063,415.17958 188.4451,383.16318 141.0976,383.16318"
       id="path441"
       style="fill:#231f20;fill-opacity:1;fill-rule:nonzero;stroke:none" />
    <path
       d="M 249.09593,422.51184 L 272.6925,422.51184 C 281.66663,422.51184 288.98487,429.67571 288.98487,438.61477 C 288.98487,447.19597 282.71911,454.87907 274.15194,454.87907 L 243.3494,454.87907 L 291.85463,537.37935 L 339.53892,537.30919 L 302.91968,476.51803 C 319.88564,468.37184 328.69138,454.87907 328.69138,435.77307 C 328.69138,413.55876 317.07903,390.11655 281.66663,390.11655 L 208.15452,390.11655 L 207.96507,537.37935 L 249.09593,537.37935 L 249.09593,422.51184"
       id="path445"
       style="fill:#231f20;fill-opacity:1;fill-rule:nonzero;stroke:none" />
    <path
       d="M -244.53756,422.20312 L -220.91994,422.20312 C -212.00895,422.20312 -204.6416,429.39505 -204.6416,438.32709 C -204.62757,446.91531 -210.89332,454.58437 -219.49558,454.58437 L -250.25602,454.58437 L -201.77886,537.06361 L -55.814119,537.06361 L -55.814119,504.7034 L -120.54857,504.7034 L -120.54857,467.09484 L -109.10462,481.0507 L -64.704055,481.0507 L -64.704055,445.62427 L -120.54857,445.62427 L -120.54857,422.20312 L -55.814119,422.20312 L -55.814119,389.82186 L -161.86186,389.82186 L -161.86186,524.18127 L -190.66469,476.21632 C -173.73382,468.07013 -164.92106,454.58437 -164.92106,435.4433 C -164.92106,413.25705 -176.55446,389.82186 -211.97387,389.82186 L -285.42284,389.82186 L -285.50002,407.09654 L -286.45427,405.8897 C -291.6044,399.25207 -303.25183,389.82186 -325.41001,389.82186 L -397.70125,389.82186 L -397.70125,537.06361 L -356.55636,537.06361 L -356.55636,422.20312 L -332.74227,422.20312 C -323.85234,422.20312 -316.73758,429.43014 -316.64637,438.32709 C -316.5341,446.91531 -322.92616,454.58437 -331.49333,454.58437 L -363.88862,454.58437 L -346.15787,483.57665 C -322.54025,483.57665 -320.91943,483.37317 -316.64637,483.05041 C -303.39917,481.41556 -294.9162,474.30782 -285.7035,463.341 L -285.7035,537.06361 L -244.53756,537.06361 L -244.53756,422.20312"
       id="path449"
       style="fill:#231f20;fill-opacity:1;fill-rule:nonzero;stroke:none" />
    <path
       d="M 37.688075,479.94209 C 37.323215,482.11721 37.442496,484.25024 37.196918,486.32011 C 35.534002,501.77751 29.983932,511.97252 11.172632,511.97252 C -15.209497,511.97252 -15.279662,483.77311 -15.279662,462.94807 C -15.279662,442.38264 -15.209497,415.58654 10.849872,415.58654 C 32.460764,415.58654 36.993439,431.80874 37.891554,449.64474 C 67.543383,449.1185 63.698328,449.94645 79.197828,449.44828 C 72.686494,408.52791 50.619528,383.2123 11.242797,383.2123 C -30.042428,383.2123 -58.262886,414.44986 -58.262886,462.49901 C -58.262886,520.245 -30.428337,544.36781 11.242797,544.36781 C 46.43768,544.36781 74.53184,525.33198 79.913514,479.93507 C 58.372786,479.93507 67.353936,479.93507 37.688075,479.94209"
       id="path453"
       style="fill:#231f20;fill-opacity:1;fill-rule:nonzero;stroke:none" />
    <path
       d="M 343.13138,376.89742 C 345.49595,376.81323 346.08534,375.83091 346.08534,374.58899 C 346.08534,373.3611 345.49595,372.75767 343.48221,372.75767 L 340.43002,372.75767 L 340.43002,376.89742 L 343.13138,376.89742 z M 340.43002,379.43039 L 340.43002,386.52409 L 337.88302,386.52409 L 337.88302,370.18963 L 343.16646,370.18963 C 346.16252,370.18963 349.26382,370.98951 349.26382,374.6802 C 349.26382,376.5887 348.11311,378.04813 345.93097,378.49017 L 345.93097,378.56736 C 348.19731,379.0094 348.44991,379.99873 348.7025,381.78092 C 348.93405,383.34561 349.10244,385.05764 349.67078,386.52409 L 346.40108,386.52409 C 346.20462,385.60493 345.98009,384.55947 345.86081,383.57014 C 345.67136,382.18788 345.67136,380.89684 344.91358,380.11801 C 344.28911,379.43039 343.45414,379.54967 342.54901,379.43039 L 340.43002,379.43039 z M 354.79986,378.53929 C 354.79986,372.25249 349.6778,367.11639 343.38398,367.11639 C 336.99894,367.11639 331.89793,372.25249 331.89793,378.53929 C 331.89793,384.88924 336.99894,390.00429 343.38398,390.00429 C 349.6778,390.00429 354.79986,384.88924 354.79986,378.53929 z M 329.45618,378.53929 C 329.45618,370.88426 335.65177,364.68166 343.38398,364.68166 C 351.07409,364.68166 357.22056,370.88426 357.22056,378.53929 C 357.22056,386.26448 351.07409,392.49516 343.38398,392.49516 C 335.65177,392.49516 329.45618,386.26448 329.45618,378.53929"
       id="path457"
       style="fill:#231f20;fill-opacity:1;fill-rule:nonzero;stroke:none" />
  </g>
</svg>
